<svg xmlns="http://www.w3.org/2000/svg" viewBox="0 0 400 400"><defs><style>.cls-1{fill:#d1f2ce;}.cls-2{fill:#2b8838;}.cls-3{fill:#3c2415;}.cls-4{font-size:66.04px;fill:#58595b;font-family:Avenir-Medium, Avenir;letter-spacing:0.01em;}.cls-5{fill:#006838;}.cls-6{fill:#fff;letter-spacing:0.01em;}.cls-7{fill:#ed1c24;}</style></defs><title>Artboard 1</title><g id="Layer_4" data-name="Layer 4"><path class="cls-1" d="M392.7,372.2a1324.57,1324.57,0,0,0-385.4,0L35.32,26a1301.94,1301.94,0,0,0,159.84,9.93A1301.93,1301.93,0,0,0,356.3,26Q374.5,199.11,392.7,372.2Z"/></g><g id="Layer_1" data-name="Layer 1"><path class="cls-2" d="M164.21,135.17l-60-33.32a3.89,3.89,0,0,1,.16-.39c7.37-13.35,14.7-26.71,22.13-40a59.16,59.16,0,0,1,11.31-14.78,29.1,29.1,0,0,1,12.35-7.21,16.46,16.46,0,0,1,4.3-.59q33.93.33,67.85.75l8.19.09c.23,0,.46,0,.67,0,.12,1.34.23,2.64.35,4l-1.59.41c-10.23,2.69-18.07,8.72-23.9,17.39-2.11,3.13-3.81,6.53-5.67,9.82l-35.67,63Z"/><path class="cls-2" d="M295.64,266.35c.42-1.49.84-2.86,1.19-4.24a41.26,41.26,0,0,0-4-30.29c-1.78-3.33-3.94-6.45-5.92-9.67l-37.42-60.91c-.12-.2-.23-.4-.39-.69l58.11-36.2c.17.25.31.46.44.68,7,11.25,14,22.52,21,33.75A105.85,105.85,0,0,1,336,171.91a43.91,43.91,0,0,1,3.92,14.19,26.41,26.41,0,0,1-1.35,11.26,4,4,0,0,1-.34.69q-19.17,33.84-38.34,67.7a1,1,0,0,1-1,.61C297.84,266.32,296.8,266.35,295.64,266.35Z"/><path class="cls-2" d="M180.68,215.82v68.65H142.25c-3.67,0-7.34,0-11-.11a51.3,51.3,0,0,1-18.25-3.8A28,28,0,0,1,102.47,273a7.1,7.1,0,0,1-.83-1.22q-17.85-33-35.68-66.1a19.48,19.48,0,0,0-1.21-1.76l2.56-2.35c1.34,1.26,2.6,2.56,4,3.73a42.42,42.42,0,0,0,21.41,9.69,58.19,58.19,0,0,0,11,.49c4-.13,8,0,12,0l21.17.13,43,.26Z"/><path class="cls-2" d="M138,174.44l-3.09,5q-9.57,15.59-19.14,31.18a1.2,1.2,0,0,1-1.22.68c-5.1-.17-10.21-.2-15.3-.49a55.7,55.7,0,0,1-16.89-3.24,38.47,38.47,0,0,1-14.79-10.53,30,30,0,0,1-6.57-11,19.77,19.77,0,0,1,1.38-15.83Q70.19,155.32,78,140.38l.18-.39-15.9-12.57c.38-1,1.58-1.49,1.51-2.78.23,0,.45,0,.68,0l41.13-.3q9.76-.06,19.54-.15a1,1,0,0,1,1,.61q16.2,30.22,32.41,60.42a1.61,1.61,0,0,1,.22.72Z"/><path class="cls-2" d="M279.84,82.61l23.61-10c-.13.28-.19.46-.28.62q-15.84,29-31.68,58a1,1,0,0,1-1.06.55q-19.58-.3-39.16-.57l-29.84-.43a.72.72,0,0,1-.49-.14l20.23-12.58-1.61-2.87Q209.89,98.14,200.21,81a1.13,1.13,0,0,1,0-1.32c3.33-5.32,6.54-10.72,10-16a47.27,47.27,0,0,1,9.18-10.48,37.32,37.32,0,0,1,16.37-7.63,28.71,28.71,0,0,1,13.42,0A19.51,19.51,0,0,1,261,54.11q9.27,14.07,18.58,28.11Z"/><path class="cls-2" d="M236.68,306.78c-1.3-.35-1.93.8-3,1.14-.13-.2-.28-.41-.41-.62q-16.33-25.5-32.68-51a1.23,1.23,0,0,1,0-1.5q16.86-29.77,33.7-59.56a1.81,1.81,0,0,1,.54-.65q.82,11.68,1.64,23.37c1.92,0,3.78,0,5.63,0l29.21-.26c2.61,0,5.22-.07,7.83-.07a1,1,0,0,1,.73.35,150.91,150.91,0,0,1,10.64,19.14,44.65,44.65,0,0,1,3.76,12.58,40.2,40.2,0,0,1-1,14.2,31.45,31.45,0,0,1-5.44,12A19.93,19.93,0,0,1,272.88,284c-5.77.43-11.53.91-17.3,1.35l-15.75,1.19c-1.05.08-1,.06-1.14,1.1q-.88,8.46-1.78,16.91C236.84,305.24,236.77,306,236.68,306.78Z"/></g><g id="Layer_2" data-name="Layer 2"><path class="cls-3" d="M317.06,252.56a74.76,74.76,0,0,1-35.16,31.8,6.26,6.26,0,0,1-5.62-1.16c-26.37-28.19-52.58-56.53-79.84-85.95,8.46-3.66,16.05-7.06,23.76-10.15,1.15-.47,3.17.07,4.29.86C255.2,209.3,285.85,230.74,317.06,252.56Z"/><path class="cls-3" d="M187.55,200.16c-34.14-16.73-66.76-33-99.65-48.67C74.11,144.91,60,138.65,43.72,140.37c1-5.26,1.54-10.5,3-15.49,2-6.94,6.81-10.77,14.29-10.22,16.86,1.24,33.71,3.41,50.58,3.65,10,.14,15.42,4.75,21,12.08,17.06,22.35,34.83,44.15,52.32,66.17C185.58,197.42,186.2,198.32,187.55,200.16Z"/><path class="cls-3" d="M348.56,192.39c-16.48-4.8-32.06-9.28-47.6-13.9-19.52-5.79-39-11.79-58.52-17.47-3.69-1.08-4.79-2.68-3.94-6.37,1.49-6.46.6-15.39,4.56-18.78,3.56-3.06,12.34-.38,18.75.31,29.6,3.17,59.17,6.56,88.76,9.76,3.65.4,6.4,1.15,5.56,5.67C353.69,164.82,351.23,178,348.56,192.39Z"/><path class="cls-3" d="M322.38,248.18c-30.84-21.88-61-43.27-91.12-64.68a31.52,31.52,0,0,1-3.2-3c0-.68-.09-.94,0-1.11,7.05-14.19,6.94-13.85,21.94-9.16,29,9.09,58.16,17.78,87.26,26.59,9.33,2.82,9.31,2.8,6.38,12.23C339.28,223.12,333.16,236.18,322.38,248.18Z"/><path class="cls-3" d="M248,104.11c-.9-1.4-.68-1.22-.69-1.06-2.42,24.44-3.21,25.13-27,20.65-21.6-4.06-43.13-8.49-64.74-12.51-8.9-1.66-17.91-2.66-27.24-4,.37-2,.78-4.92,1.46-7.77,2.73-11.36,5.76-13.44,17.29-11.24C174.05,93.31,201,98.8,228,103.7,234,104.78,240.22,104,248,104.11Z"/><path class="cls-3" d="M170.56,164.65c20.37-3.79,31.83-14.93,30.64-36.15l30.24,5.61A50.86,50.86,0,0,1,196,188.57c-3.93,1.21-6.49.49-8.88-2.64C182.07,179.26,176.84,172.69,170.56,164.65Z"/><path class="cls-3" d="M139.35,116.57c4.23.79,8.06,1.31,11.77,2.29a5.73,5.73,0,0,1,3.25,2.81c5.82,12.84,16.18,14,24.64,2.7l14.63,2.72C192,140.46,179.81,148,163.5,145.8,149.74,144,135.5,134.14,139.35,116.57Z"/></g><g id="Layer_3" data-name="Layer 3"><text class="cls-4" transform="translate(27.94 351.92)">Recicla<tspan class="cls-5" x="211.31" y="0">M</tspan><tspan class="cls-6" x="271.8" y="0">e</tspan><tspan class="cls-7" x="309.18" y="0">x</tspan></text></g></svg>